<svg xmlns="http://www.w3.org/2000/svg" width="250" height="250" viewBox="0 0 250 250"><g fill="none" fill-rule="evenodd"><path fill="#45B500" d="M99.95 242.9a8.92 8.92 0 01-8.95-8.92v-99.82a40.86 40.86 0 0110.85-27.72 23.63 23.63 0 006.28-14.77l.33-5.73 3.07-55.2.07-1.54-2.2-1.8-.03-.02 2.13-14.77h26.59l2.13 14.77-.03.02-2.2 1.8.07 1.55 3.07 55.2.33 5.72c.3 5.5 2.53 10.74 6.29 14.77a40.86 40.86 0 0110.84 27.72v99.82c0 4.94-4 8.92-8.94 8.92h-49.7"/><path fill="#75C80A" d="M99.94 240.38a6.4 6.4 0 01-6.4-6.4v-99.82c0-9.66 3.62-18.9 10.18-25.99.48-.51.93-1.05 1.36-1.6h2.7l-.36.48c-.4.6-.89 1.15-1.37 1.7l-1.59 1.85a35.87 35.87 0 00-8.64 19.92c-.3 3.91-.15 7.16-.18 10.58l.05 9.98.09 9.58c-.02.42-.03.85-.03 1.27v23.08c0 1.74.15 3.44.45 5.1l.3 11.8c.54 18.2 1.28 29.46 2.1 29.46.82 0 1.57-11.26 2.1-29.45l.03-.74a28.73 28.73 0 0023.78 12.58h.29v20.35c-8.34.03-16.62 2.16-24.86 6.27"/><path fill="#75C80A" d="M101.54 144.62l.02-3.52c.04-3.34-.07-6.96.18-9.98a30.62 30.62 0 017.14-16.71l1.57-1.89c.57-.67 1.15-1.34 1.63-2.08a32.32 32.32 0 002.4-3.87h10.32v26.6h-.3c-9.37 0-17.7 4.5-22.96 11.45"/><path fill="#EDEDED" d="M113.09 13.12a2.94 2.94 0 01-2.86-3.03v-.06A2.95 2.95 0 01113.09 7h23.41a2.95 2.95 0 012.87 3.03v.06a2.95 2.95 0 01-2.87 3.03h-23.4"/><path fill="#008D36" d="M111.53 30.75l.07-1.55-2.2-1.8.55-.02h29.69l.55.02-2.2 1.8.07 1.55h-26.53"/><path fill="#F6F6F6" d="M124.5 213.76a28.76 28.76 0 01-28.75-28.75v-23.08a28.76 28.76 0 0128.76-28.75h.58a28.76 28.76 0 0128.75 28.75v23.08a28.75 28.75 0 01-28.75 28.75h-.58"/><path fill="#E94E1B" d="M124.5 211.23A26.25 26.25 0 0198.29 185v-23.08a26.25 26.25 0 0126.23-26.22h.58a26.25 26.25 0 0126.22 26.22V185a26.25 26.25 0 01-26.22 26.22h-.58"/><path fill="#F6F6F6" d="M124.5 201.1a16.1 16.1 0 01-16.08-16.1v-23.07a16.1 16.1 0 0116.09-16.08h.58a16.1 16.1 0 0116.08 16.08v23.08a16.1 16.1 0 01-16.08 16.08h-.58"/><path fill="#F9B233" d="M124.5 198.56A13.57 13.57 0 01110.96 185v-23.08c0-7.47 6.08-13.55 13.56-13.55h.58c7.47 0 13.55 6.08 13.55 13.55V185c0 7.47-6.08 13.55-13.55 13.55h-.58"/><path fill="#F6F6F6" d="M95.75 181.11h58.09v-15.27H95.75z"/><path fill="#BE1622" d="M98.24 178.31h53.11v-10.13H98.24z"/><path fill="#F9B233" d="M124.8 87.54a84.8 84.8 0 01-16.34-1.6l1.5-26.94a58 58 0 0029.68 0l1.5 26.94a84.76 84.76 0 01-16.34 1.6"/><path fill="#F6F6F6" d="M124.8 92.2c-7.12 0-12.9-8.03-12.9-17.94 0-9.91 5.78-17.95 12.9-17.95 7.11 0 12.88 8.04 12.88 17.95S131.91 92.2 124.8 92.2"/><path fill="#E94E1B" d="M124.8 87.8c-5.37 0-9.73-6.07-9.73-13.54 0-7.48 4.36-13.54 9.73-13.54s9.72 6.06 9.72 13.54c0 7.47-4.35 13.54-9.72 13.54"/><path fill="#B6DF80" d="M98.6 231.37c-.82 0-1.56-11.26-2.1-29.45l-.3-11.8a28.6 28.6 0 004.53 11.06l-.02.74c-.54 18.2-1.29 29.45-2.1 29.45"/><path fill="#F6F6F6" d="M100.73 201.18a28.6 28.6 0 01-4.53-11.07l-.17-9h2.25v3.9c0 4.05.93 7.9 2.58 11.32l-.13 4.85"/><path fill="#F0A289" d="M100.86 196.33a26.06 26.06 0 01-2.58-11.32v-3.9h2.9c-.1 5.41-.2 10.5-.32 15.22"/><path fill="#9ED67B" d="M114.49 106.57h-6.71a27.89 27.89 0 004.75-11.08c.33-1.36.38-2.66.54-4.08l.32-4.32.02-.33c.78.11 1.56.2 2.35.3a14.29 14.29 0 002.74 2.86l-.07 1.8c-.12 1.49-.17 3.18-.5 4.76a32.9 32.9 0 01-3.44 10.09"/><path fill="#B6DF80" d="M95.78 160.66l-.09-9.58-.05-9.98c.03-3.42-.12-6.67.18-10.58.8-7.51 3.9-14.6 8.64-19.92l1.59-1.84c.48-.56.97-1.1 1.37-1.71l.36-.48h6.7a32.32 32.32 0 01-2.4 3.87c-.48.74-1.06 1.4-1.63 2.08l-1.57 1.89a30.62 30.62 0 00-7.14 16.71c-.25 3.02-.14 6.64-.18 9.98l-.02 3.52a28.64 28.64 0 00-5.76 16.04"/><path fill="#F6F6F6" d="M98.28 165.84h-2.46l-.04-5.18c.26-6 2.37-11.54 5.76-16.04 0 1.58 0 3.14-.02 4.7a26.06 26.06 0 00-3.24 12.61v3.9"/><path fill="#F0A289" d="M101.38 165.84h-3.1v-3.9a26.1 26.1 0 013.24-12.62v1.76l-.14 14.76"/><path fill="#F6F6F6" d="M101.18 181.1h-5.15a2507.58 2507.58 0 01-.2-15.26h5.55l-.02 2.34h-3.12v10.13h2.98l-.04 2.8"/><path fill="#DA868C" d="M101.22 178.31h-2.98v-10.13h3.12l-.02 1.78a1056 1056 0 01-.12 8.35"/><path fill="#9ED67B" d="M116.64 60.36l-1.12-.17c1.4-15.86 2.63-25.5 3.4-25.5.72.05.9 8.74.61 23.18-1.04.65-2.01 1.5-2.89 2.49"/><path fill="#F7D495" d="M115.77 87.05c-.79-.09-1.57-.18-2.36-.29l.26-3.44a18.43 18.43 0 002.1 3.73m-.4-25.01l.16-1.85 1.13.17a16.6 16.6 0 00-1.3 1.68"/><path fill="#F6F6F6" d="M118.5 89.92c-1-.78-1.93-1.75-2.74-2.87a18.4 18.4 0 01-2.1-3.73l.34-4.5a31993.42 31993.42 0 011.35-16.78c.4-.6.84-1.16 1.29-1.68.88-1 1.85-1.84 2.9-2.5l-.12 5.12c-2.62 2.42-4.35 6.57-4.35 11.28 0 4.27 1.42 8.07 3.64 10.55a3242.5 3242.5 0 00-.2 5.11"/><path fill="#F0A289" d="M118.7 84.81c-2.2-2.48-3.63-6.28-3.63-10.55 0-4.7 1.73-8.86 4.35-11.28l-.03 1.24-.47 14.88-.21 5.71"/><path fill="#3F9E04" d="M149.65 242.9H124.8v-8.79c8.33.03 16.61 2.16 24.86 6.27a6.4 6.4 0 006.39-6.4v-99.82c0-9.66-3.61-18.9-10.18-25.99-.48-.51-.93-1.05-1.36-1.6H124.8V92.2c3.52 0 6.71-1.97 9.04-5.16a84.7 84.7 0 007.3-1.1l.32 5.72c.3 5.5 2.53 10.74 6.29 14.77a40.86 40.86 0 0110.84 27.72v99.82c0 4.94-4 8.92-8.94 8.92"/><path fill="#68AF0D" d="M149.66 240.38c-8.25-4.1-16.53-6.24-24.86-6.27v-20.35h.29a28.75 28.75 0 0028.75-28.75v-23.08a28.76 28.76 0 00-28.75-28.75h-.3v-26.61h19.72c.43.55.88 1.09 1.36 1.6a38.16 38.16 0 0110.18 25.99v99.82a6.4 6.4 0 01-6.4 6.4"/><path fill="#D6D6D5" d="M125.09 213.76h-.3v-2.53h.3A26.25 26.25 0 00151.3 185v-3.9h2.53v3.9a28.75 28.75 0 01-28.75 28.75m28.76-47.91h-2.53v-3.9a26.25 26.25 0 00-26.22-26.23h-.3v-2.53h.3a28.76 28.76 0 0128.75 28.75v3.9"/><path fill="#CB471B" d="M125.09 211.23h-.3v-10.14h.3a16.1 16.1 0 0016.08-16.08v-3.9h10.14v3.9a26.25 26.25 0 01-26.22 26.22m26.21-45.39h-10.13v-3.9a16.1 16.1 0 00-16.08-16.09h-.3v-10.14h.3a26.25 26.25 0 0126.22 26.22v3.9"/><path fill="#D6D6D5" d="M125.09 201.1h-.3v-2.54h.3c7.47 0 13.55-6.08 13.55-13.55v-3.9h2.53v3.9a16.1 16.1 0 01-16.08 16.08m16.08-35.25h-2.53v-3.9c0-7.48-6.08-13.56-13.55-13.56h-.3v-2.53h.3a16.1 16.1 0 0116.08 16.08v3.9"/><path fill="#D89C2F" d="M125.09 198.56h-.3V181.1h13.85v3.9c0 7.47-6.08 13.55-13.55 13.55m13.55-32.71H124.8v-17.46h.29c7.47 0 13.55 6.08 13.55 13.55v3.9"/><path fill="#D6D6D5" d="M153.84 181.11H124.8v-2.8h26.55v-10.13H124.8v-2.34h29.04v15.27"/><path fill="#A61721" d="M124.8 178.31h26.55v-10.13H124.8z"/><path fill="#DDD" d="M139.94 10.34v-.07c0-1.48-1.1-2.74-2.62-3.15 1.52.4 2.62 1.67 2.62 3.15v.07"/><path fill="#3F9E04" d="M132.95 60.36c-2.22-2.53-5.06-4.05-8.15-4.05V30.75h13.26L139.64 59a57.1 57.1 0 01-6.69 1.36m7.25-32.96l-.56-.02H124.8V13.12h11.7c.59 0 1.14-.18 1.6-.5l2.12 14.76-.03.02"/><path fill="#CECECE" d="M136.5 13.12h-11.7V7h11.7c.29 0 .56.04.82.12a3.02 3.02 0 012.05 2.91v.09A3.02 3.02 0 01138 12.6h.08c-.45.33-1 .51-1.59.51"/><path fill="#047C32" d="M138.06 30.75H124.8v-3.37h14.84l.55.02-2.2 1.8.07 1.55"/><path fill="#D89C2F" d="M133.84 87.05c2.37-3.26 3.84-7.78 3.84-12.8 0-5.6-1.84-10.6-4.73-13.9a57.1 57.1 0 006.69-1.35l1.5 26.94a84.7 84.7 0 01-7.3 1.11"/><path fill="#D6D6D5" d="M124.8 92.2v-4.4c5.37 0 9.72-6.07 9.72-13.54 0-7.48-4.35-13.54-9.72-13.54V56.3c3.1 0 5.93 1.52 8.15 4.05 2.89 3.29 4.73 8.3 4.73 13.9 0 5-1.47 9.53-3.84 12.8-2.33 3.18-5.52 5.15-9.04 5.15"/><path fill="#CB471B" d="M124.8 87.8V60.72c5.37 0 9.72 6.06 9.72 13.54 0 7.47-4.35 13.54-9.72 13.54"/></g></svg>
