<svg xmlns="http://www.w3.org/2000/svg" width="250" height="250" viewBox="0 0 250 250"><g fill="none" fill-rule="evenodd"><path fill="#F9B233" d="M166.12 217.34l1.11 6.26c0 7.88-4.76 13.3-10.67 13.3h-62.9c-5.9 0-10.66-5.42-10.66-13.3l1.11-6.26v-83.68L83 131.84c0-7.15 3.24-13.89 8.82-18.35l13.12-10.46a7.1 7.1 0 002.64-6.57 110 110 0 01-.84-11.5c-.07-2.23-.1-4.46-.02-6.74.13-4.82.48-9.7 1.09-14.55l.05-.58c.2-1.5.4-2.97.66-4.43l.05-.39a138 138 0 012.13-10.61 2.48 2.48 0 00-.94-2.54 3.01 3.01 0 01-1.2-2.63l1.2-15.08h30.71l1.2 15.08a3.01 3.01 0 01-1.2 2.63 2.52 2.52 0 00-.94 2.54 130.41 130.41 0 011.65 7.93c.18.86.33 1.75.48 2.66v.02l.05.39c.13.73.26 1.46.33 2.23.1.73.23 1.46.33 2.2v.02l.05.56c.2 1.78.4 3.58.56 5.35l.23 2.53.15 2.82c.08 1.29.13 2.56.15 3.85.08 2.28.05 4.5-.02 6.74a110 110 0 01-.84 11.5c-.35 2.51.66 5 2.64 6.57l13.12 10.46a23.48 23.48 0 018.82 18.35l-1.11 1.82v83.68"/><path fill="#432918" d="M110.28 14c-1 0-1.83.82-1.83 1.83v9.73c0 1.01.82 1.83 1.83 1.83h29.68c1 0 1.82-.82 1.82-1.83v-9.73c0-1.01-.82-1.83-1.82-1.83h-29.68m33.23 64.22h-36.8c.14-4.82.49-9.7 1.1-14.55l.05-.58c.2-1.5.4-2.97.66-4.43l.05-.39a138 138 0 012.13-10.61 2.48 2.48 0 00-.94-2.54 3.01 3.01 0 01-1.2-2.63l1.2-15.08h30.71l1.2 15.08a3.01 3.01 0 01-1.2 2.63 2.52 2.52 0 00-.94 2.54 130.41 130.41 0 011.65 7.93c.18.86.33 1.75.48 2.66v.02l.05.39c.13.73.26 1.46.33 2.23.1.73.23 1.46.33 2.2v.02l.05.56c.2 1.78.4 3.58.56 5.35l.23 2.53.15 2.82c.08 1.29.13 2.56.15 3.85"/><path fill="#CA650B" d="M125.12 137.77l-37.78-.99-1.98-5.37-.12-.2a21.12 21.12 0 017.98-15.96l10.27-8.2h43.25l10.27 8.2a21.12 21.12 0 017.98 15.96l-.12.2-1.98 5.37-37.77.99m0 91.98a102.24 102.24 0 00-31.46 4.91c-4.75 0-8.35-4.65-8.42-10.86l1.96-11.05 37.92 3.37 37.91-3.37L165 223.8c-.08 6.2-3.67 10.86-8.43 10.86a102.25 102.25 0 00-31.45-4.91"/><path fill="#432918" d="M84.11 217.35h82.01v-83.7H84.11z"/><path fill="#9C723E" d="M118.75 142.61c.07 0 .17.25.04.73s-.7 1.09-1.62 1.32c-.46.13-1.05.12-1.65-.13a2.63 2.63 0 01-1.34-1.56 3.51 3.51 0 011.87-4.2c1.68-.76 3.9-.4 5.37 1.12a5.5 5.5 0 011.25 6.14 5.99 5.99 0 01-5.94 3.52 8.43 8.43 0 01-3.41-.95c-1.11-.46-2.01-1.08-2.95-1.68-3.63-2.36-6.9-4.88-10.08-6.03-3.2-1.14-6.4-.2-7.64 1.87a3.61 3.61 0 00.83 4.93c1.13.84 2.07.7 2.09.93.07.1-.93.7-2.62-.05a4.84 4.84 0 01-2.2-2.37 5.03 5.03 0 01.3-4.38c1.45-3.09 6.08-4.58 9.94-3.25 3.92 1.28 7.25 3.85 10.83 6.15.87.56 1.74 1.15 2.58 1.49.84.46 1.67.7 2.49.76a3.5 3.5 0 003.56-1.93c.66-1.2.25-2.7-.6-3.63a2.9 2.9 0 00-3.06-.92c-.9.29-1.33 1.33-1.2 2.09a1.3 1.3 0 001.42 1.07c1.36-.07 1.54-1.09 1.74-1.04m12.73 0c-.07 0-.17.25-.04.73.14.48.7 1.09 1.63 1.32a2.5 2.5 0 001.64-.13 2.65 2.65 0 001.35-1.56 3.5 3.5 0 00-1.88-4.2 4.82 4.82 0 00-5.37 1.12 5.5 5.5 0 00-1.24 6.14 5.99 5.99 0 005.93 3.52 8.43 8.43 0 003.42-.95c1.1-.46 2-1.08 2.94-1.68 3.64-2.36 6.9-4.88 10.08-6.03 3.2-1.14 6.4-.2 7.64 1.87a3.61 3.61 0 01-.83 4.93c-1.13.84-2.06.7-2.08.93-.08.1.93.7 2.62-.05a4.84 4.84 0 002.2-2.37 5.02 5.02 0 00-.3-4.38c-1.45-3.09-6.1-4.58-9.94-3.25-3.93 1.28-7.26 3.85-10.84 6.15-.87.56-1.74 1.15-2.58 1.49-.84.46-1.67.7-2.48.76a3.5 3.5 0 01-3.57-1.93c-.66-1.2-.24-2.7.6-3.63a2.9 2.9 0 013.06-.92c.9.29 1.33 1.33 1.2 2.09a1.29 1.29 0 01-1.42 1.07c-1.36-.07-1.54-1.09-1.74-1.04m-6.36 64.9c-3.35-.01-6.65.68-9.98 1.36-3.34.7-6.71 1.38-10.23 1.37-3.48.1-7.02-.86-9.9-2.84a11.02 11.02 0 01-4.9-8.77c-.1-3.36.9-6.37 2-9.08 1.12-2.7 2.3-5.18 2.99-7.66 1.7-5-.46-9.49-2.83-13.38-2.35-3.85-4.37-8.12-3.59-12.13a7.1 7.1 0 012.85-4.67 5.7 5.7 0 012.36-.88c.82-.05 1.58.12 2.24.4 1.3.62 2.2 1.83 2.15 3.03a3.23 3.23 0 01-1.2 2.42c-1.23.93-2.14.43-2.06.42-.02-.15.81.08 1.7-.82.44-.42.82-1.17.77-2-.01-.83-.74-1.7-1.76-2.1a4 4 0 00-1.73-.21 4.6 4.6 0 00-1.74.76 5.8 5.8 0 00-2.12 3.9c-.26 1.64.04 3.48.74 5.32a31.98 31.98 0 003 5.61c.6.96 1.19 2.03 1.8 3.08l.8 1.73c.27.58.56 1.17.69 1.84.93 2.55.78 5.54.04 8.25-1.38 5.45-4.93 10.43-4.67 16.05a8.53 8.53 0 003.9 6.82 14.23 14.23 0 008.49 2.33c6.25.05 12.8-2.75 20.19-2.79 7.37.04 13.93 2.84 20.18 2.79 3.1.13 6.11-.73 8.49-2.33a8.53 8.53 0 003.9-6.82c.26-5.62-3.3-10.6-4.67-16.05-.74-2.7-.89-5.7.05-8.25.13-.67.41-1.26.68-1.84l.8-1.73c.61-1.05 1.21-2.12 1.8-3.08a32.33 32.33 0 003-5.61c.7-1.84 1-3.68.75-5.32a5.8 5.8 0 00-2.13-3.9 4.6 4.6 0 00-1.74-.76c-.6-.08-1.2.03-1.73.2-1.02.42-1.75 1.28-1.76 2.1-.04.84.33 1.6.76 2.01.9.9 1.73.67 1.72.82.07 0-.84.51-2.07-.42a3.23 3.23 0 01-1.2-2.42c-.05-1.2.85-2.41 2.15-3.03a5.02 5.02 0 012.24-.4c.83.06 1.61.45 2.36.88a7.09 7.09 0 012.85 4.67c.78 4-1.23 8.28-3.59 12.13-2.37 3.9-4.54 8.38-2.83 13.38.68 2.48 1.87 4.96 3 7.66 1.1 2.7 2.1 5.72 1.99 9.08a11.02 11.02 0 01-4.9 8.77 16.68 16.68 0 01-9.9 2.84c-3.51.01-6.89-.68-10.22-1.37-3.34-.68-6.63-1.37-9.98-1.36m-4.74-136.53l-.3-.1c-.17-.12-.44-.3-.61-.68a1.34 1.34 0 01-.24-.64c-.04-.25-.1-.53 0-.83.03-.31.13-.63.37-.9.17-.34.5-.53.83-.75.67-.33 1.69-.52 2.54.07.84.57 1.25 1.6 1.22 2.63 0 1.04-.66 2.16-1.62 2.73a5 5 0 01-3.22.6c-2.25-.41-3.83-1.83-5.07-2.97-1.2-1.12-2.54-1.83-3.42-1.24a1.7 1.7 0 00-.67 2.18c.28.58.65.78.59.9 0 .04-.51.01-1.04-.64-.54-.57-.74-2.23.61-3.22.65-.51 1.65-.58 2.48-.27.84.29 1.56.81 2.24 1.37 1.3 1.12 2.75 2.28 4.46 2.58a3.8 3.8 0 002.37-.4c.66-.4 1.03-.99 1.07-1.68.06-.68-.2-1.35-.63-1.68-.43-.35-1.04-.28-1.5-.12-.98.42-1.1 1.49-.9 2.07.16.64.54.88.44 1m9.47-.01l.3-.1c.18-.12.44-.3.61-.68.12-.18.22-.38.24-.64.04-.25.1-.53.01-.83a1.68 1.68 0 00-.37-.9c-.18-.34-.5-.53-.83-.75-.67-.33-1.7-.52-2.55.07a3.01 3.01 0 00-1.21 2.63c0 1.04.65 2.16 1.61 2.73a5 5 0 003.22.6c2.26-.41 3.83-1.83 5.07-2.97 1.2-1.12 2.54-1.83 3.43-1.24.9.54.98 1.62.67 2.18-.28.58-.66.78-.6.9 0 .04.52.01 1.04-.64.54-.57.74-2.23-.6-3.22a2.66 2.66 0 00-2.49-.27 7.5 7.5 0 00-2.24 1.37c-1.3 1.12-2.75 2.28-4.46 2.58a3.75 3.75 0 01-2.37-.4 2.1 2.1 0 01-1.07-1.68c-.05-.68.2-1.35.64-1.68.43-.35 1.03-.28 1.5-.12.97.42 1.1 1.49.9 2.07-.17.64-.54.88-.45 1m12.57-7.32l-.4-.2a2.3 2.3 0 00-1.57.1c-.64.2-1.3.63-2.2.99-.84.38-2.29.38-3.23-.33-.93-.6-1.8-1.4-2.58-1.24-.84.02-1.75 1.3-3.4 1.47-1.54.12-2.94-.66-3.92-.76-1 .1-2.39.88-3.93.76-1.65-.18-2.56-1.45-3.4-1.47-.78-.15-1.64.63-2.58 1.24-.94.7-2.38.7-3.22.33-.91-.36-1.57-.79-2.2-.99a2.3 2.3 0 00-1.58-.1l-.4.2.05-.58.18-.1a2.7 2.7 0 011.97-.13c.74.18 1.5.58 2.28.81.81.23 1.55.23 2.33-.35.44-.33.87-.64 1.32-1a3.12 3.12 0 012-.55c1.58.28 2.36 1.42 3.37 1.4 1.04.1 2.1-.54 3.8-.82 1.7.28 2.77.92 3.8.82 1.02.02 1.8-1.12 3.38-1.4.78-.07 1.52.23 2 .56l1.32.99c.78.58 1.52.58 2.33.35.78-.23 1.54-.63 2.28-.8a2.7 2.7 0 011.98.12l.17.1v.02l.05.56m-.71-5.01l-.02.02-.38.28c-.4.25-.96.4-1.6.66-.63.15-1.42.3-2.28.25-.8.06-1.61-.18-2.43-.42-1-.29-2-.58-3-.34-.93.2-2 .69-3.34.79a8.75 8.75 0 01-1.92-.2l-1.62-.41-1.63.4c-.63.13-1.26.23-1.92.2-1.34-.1-2.4-.58-3.35-.78-1-.24-2 .05-2.98.34-.82.24-1.64.48-2.44.42-.86.05-1.65-.1-2.28-.25-.63-.26-1.2-.4-1.6-.66l-.4-.3.05-.39c.78.33 2.18.9 4.15.69.38-.08.79-.13 1.17-.2.43-.13.84-.28 1.3-.4.85-.31 2.05-.7 3.24-.44 1.14.2 2.18.63 3.19.68.5 0 1.04-.07 1.6-.17.6-.18 1.26-.36 1.9-.51.63.15 1.29.33 1.9.5.55.1 1.09.18 1.6.18 1-.05 2.05-.48 3.19-.68a6.14 6.14 0 013.24.43c.46.13.86.28 1.3.4.37.08.78.13 1.16.2a7.97 7.97 0 004.15-.68l.05.39"/><path fill="#9C723E" d="M125.12 169.52c-7.78 0-15.56.91-23.18 2.74l-2.99-12.46a112.02 112.02 0 0152.33 0l-3 12.46a99.32 99.32 0 00-23.16-2.74m15.97 8.48c-.2.82-7.33-.52-15.97-1.01-8.65.5-15.78 1.83-15.97 1-.16-.57 6.75-3.1 15.97-3.65 9.22.54 16.13 3.08 15.97 3.66m-.82 7.4c-.17.8-6.89-.02-15.15-.16-8.27.14-14.99.97-15.16.16-.15-.61 6.56-2.65 15.16-2.8 8.6.15 15.3 2.19 15.15 2.8m3.51 8.19c-.14.37-2.24-.05-5.57-.7a89.18 89.18 0 00-13.1-1.37c-5.1.13-9.74.77-13.09 1.36-3.32.66-5.43 1.08-5.57.7-.11-.3 1.8-1.36 5.12-2.5a49.32 49.32 0 0113.55-2.2 49.33 49.33 0 0113.55 2.2c3.32 1.14 5.23 2.2 5.1 2.5m.73 7.17c-.12.37-2.32-.01-5.8-.67-3.45-.6-8.38-1.35-13.58-1.72-5.2.37-10.14 1.11-13.6 1.72-3.47.66-5.67 1.04-5.8.67-.1-.32 1.91-1.34 5.36-2.48a62 62 0 0114.04-2.55 61.9 61.9 0 0114.03 2.55c3.45 1.14 5.47 2.16 5.35 2.48"/><path fill="#3E2818" d="M139.96 27.39h-14.84V14h14.84c1 0 1.82.82 1.82 1.83v9.73c0 1.01-.82 1.83-1.82 1.83"/><path fill="#E3E3E3" d="M142.9 64.1l-.48-.43c.26.13.4.28.48.43"/><path fill="#DEA030" d="M156.56 236.9h-31.44v-7.15h.28c10.43 0 20.83 1.62 31.17 4.91 4.76 0 8.35-4.65 8.43-10.86l-1.15-6.45h2.27l1.11 6.25c0 7.88-4.76 13.3-10.67 13.3m9.56-103.25h-2.08l.83-2.24.12-.2a21.12 21.12 0 00-7.98-15.96l-10.27-8.2h-21.62V78.23h18.4a109.61 109.61 0 01-.03 6.74 110 110 0 01-.84 11.5 7.12 7.12 0 002.64 6.56l13.12 10.47a23.48 23.48 0 018.82 18.35l-1.1 1.82"/><path fill="#3E2818" d="M143.51 78.22h-18.4V63.7c.92.1 2.19.77 3.6.77l.33-.01c1.65-.18 2.56-1.45 3.4-1.47a.92.92 0 01.2-.02c.73 0 1.53.7 2.38 1.26.55.4 1.26.58 1.92.58.49 0 .95-.1 1.3-.25.91-.36 1.57-.79 2.2-.99a3 3 0 01.99-.2c.21 0 .4.04.59.1l.4.2c.2 1.78.4 3.58.56 5.35l.23 2.53.15 2.82c.08 1.29.13 2.56.15 3.85"/><path fill="#3E2818" d="M128.53 66.77c-.43 0-.86.1-1.27.38a3.01 3.01 0 00-1.21 2.63c0 1.04.65 2.16 1.61 2.73a4.73 4.73 0 003.22.6c2.26-.41 3.83-1.83 5.07-2.97.9-.84 1.89-1.46 2.7-1.46.26 0 .5.07.73.22.9.54.98 1.62.67 2.18-.28.58-.66.78-.6.9h.06c.14 0 .55-.1.98-.64.54-.57.74-2.23-.6-3.22-.4-.3-.92-.46-1.46-.46-.34 0-.7.06-1.03.19a7.5 7.5 0 00-2.24 1.37c-1.3 1.12-2.75 2.28-4.46 2.58a3.99 3.99 0 01-2.37-.4 2.1 2.1 0 01-1.07-1.68c-.05-.68.2-1.35.64-1.68.22-.18.5-.25.78-.25.25 0 .5.05.71.13.98.42 1.11 1.49.9 2.07-.16.64-.53.88-.44 1l.3-.12c.18-.11.44-.3.61-.67.12-.18.22-.38.24-.64.04-.25.1-.53.01-.83a1.68 1.68 0 00-.37-.9c-.18-.34-.5-.53-.83-.75-.36-.18-.8-.31-1.28-.31"/><path fill="#B55C0D" d="M164.04 133.65h-38.92v-26.6h21.62l10.27 8.2a21.12 21.12 0 017.98 15.96l-.12.2-.83 2.24m-7.47 101.01a102.28 102.28 0 00-31.17-4.92h-.28v-12.4h38.73l1.15 6.46c-.08 6.2-3.67 10.86-8.43 10.86"/><path fill="#3E2818" d="M166.12 217.35h-41v-9.84h.08c3.32 0 6.59.68 9.9 1.36 3.3.69 6.65 1.37 10.13 1.37h.62c3.31 0 6.64-.96 9.37-2.84a11.02 11.02 0 004.9-8.77c.1-3.36-.9-6.37-2-9.08-1.12-2.7-2.3-5.18-2.99-7.66-1.7-5 .46-9.49 2.83-13.38 2.36-3.85 4.37-8.12 3.6-12.13a7.09 7.09 0 00-2.86-4.67 5.71 5.71 0 00-2.65-.9c-.7 0-1.36.18-1.95.42-1.3.62-2.2 1.83-2.15 3.03a3.23 3.23 0 001.2 2.42c.6.45 1.1.56 1.47.56.4 0 .64-.14.6-.14.01-.15-.82.08-1.72-.82a2.73 2.73 0 01-.76-2c.01-.83.74-1.7 1.76-2.1a4.28 4.28 0 011.73-.21c.6.07 1.18.41 1.74.76a5.8 5.8 0 012.13 3.9 10.7 10.7 0 01-.74 5.32 32.33 32.33 0 01-3 5.61c-.6.96-1.2 2.03-1.81 3.08l-.8 1.73c-.27.58-.55 1.17-.68 1.84-.94 2.55-.79 5.54-.05 8.25 1.38 5.45 4.93 10.43 4.67 16.05a8.53 8.53 0 01-3.9 6.82 14.16 14.16 0 01-8.49 2.33h-.19c-6.2 0-12.7-2.75-20-2.79v-6.5c5.2.36 10.14 1.1 13.6 1.71 2.54.48 4.4.82 5.26.82.32 0 .5-.05.53-.15.12-.32-1.9-1.34-5.35-2.48a62.29 62.29 0 00-14.03-2.55v-4.2c5.11.13 9.74.77 13.09 1.36 2.47.49 4.27.85 5.09.85.28 0 .44-.05.48-.14.12-.31-1.79-1.37-5.11-2.51a49.33 49.33 0 00-13.55-2.2v-3.64c5.6.1 10.5.5 13.12.5 1.24 0 1.97-.08 2.03-.34.15-.61-6.55-2.65-15.15-2.8V177c6.69.38 12.47 1.27 14.83 1.27.7 0 1.09-.08 1.14-.26.16-.58-6.75-3.12-15.97-3.66v-4.82c7.77 0 15.55.91 23.17 2.74l2.99-12.46c-8.6-2.07-17.38-3.1-26.16-3.1v-23.05h41v83.68"/><path fill="#3E2818" d="M132.34 138.39c-1.26 0-2.56.5-3.53 1.5a5.5 5.5 0 00-1.24 6.14 6.01 6.01 0 005.93 3.52 8.43 8.43 0 003.42-.95c1.1-.46 2-1.08 2.94-1.68 3.64-2.36 6.9-4.88 10.08-6.03a8.4 8.4 0 012.77-.49c2.14 0 3.99.9 4.87 2.36a3.61 3.61 0 01-.83 4.93c-1.13.84-2.06.7-2.08.93-.05.06.33.32 1.03.32.42 0 .95-.09 1.59-.37a4.84 4.84 0 002.2-2.37 5.02 5.02 0 00-.3-4.38c-1.1-2.32-3.98-3.74-6.99-3.74a9 9 0 00-2.95.49c-3.93 1.28-7.26 3.85-10.84 6.15-.87.56-1.74 1.15-2.58 1.49a6.04 6.04 0 01-2.89.78c-1.45 0-2.58-.8-3.16-1.95-.66-1.2-.24-2.7.6-3.63a2.95 2.95 0 012.26-1.05c.29 0 .56.04.8.13.9.29 1.33 1.33 1.2 2.09a1.27 1.27 0 01-1.3 1.07h-.12c-1.33-.06-1.53-1.04-1.72-1.04h-.02c-.07 0-.17.25-.04.73.14.48.7 1.09 1.63 1.32a2.62 2.62 0 001.65-.13 2.65 2.65 0 001.34-1.56 3.5 3.5 0 00-1.88-4.2 4.4 4.4 0 00-1.84-.38"/><path fill="#8D683A" d="M132.96 149.57a6.01 6.01 0 01-5.4-3.54 5.5 5.5 0 011.25-6.14c.97-1 2.27-1.5 3.53-1.5.64 0 1.27.13 1.84.39a3.5 3.5 0 011.88 4.19c-.26.7-.72 1.28-1.35 1.56a2.62 2.62 0 01-1.64.13c-.94-.23-1.5-.84-1.63-1.32-.13-.48-.03-.73.04-.73h.02c.2 0 .4.98 1.72 1.04h.12c.61 0 1.15-.36 1.3-1.07.13-.76-.3-1.8-1.2-2.09a2.36 2.36 0 00-.8-.13c-.8 0-1.7.34-2.27 1.05-.83.92-1.25 2.43-.59 3.63a3.48 3.48 0 003.57 1.93c.81-.06 1.64-.3 2.48-.76.84-.34 1.71-.93 2.58-1.5 3.58-2.29 6.9-4.86 10.84-6.14a9.1 9.1 0 012.95-.49c3 0 5.9 1.42 7 3.74a5.1 5.1 0 01.29 4.38 4.84 4.84 0 01-2.2 2.37 3.9 3.9 0 01-1.59.37c-.7 0-1.08-.26-1.03-.32.02-.23.95-.1 2.08-.93 1.1-.8 2.22-2.9.83-4.93-.88-1.46-2.73-2.36-4.87-2.36-.89 0-1.83.16-2.77.5-3.17 1.14-6.44 3.66-10.08 6.02-.94.6-1.84 1.22-2.94 1.68a8.43 8.43 0 01-3.96.97m12.89 60.68l-.53-.01h-.09c-3.48 0-6.83-.68-10.13-1.37-3.31-.68-6.58-1.36-9.9-1.36h-.08v-2.64c7.3.04 13.8 2.79 20 2.79h.18l.62.01c2.88 0 5.65-.84 7.87-2.34a8.53 8.53 0 003.9-6.82c.26-5.62-3.3-10.6-4.67-16.05-.74-2.7-.89-5.7.05-8.25.13-.67.41-1.26.68-1.84l.8-1.73c.61-1.05 1.21-2.12 1.8-3.08a32.33 32.33 0 003-5.61c.7-1.84 1-3.68.75-5.32a5.8 5.8 0 00-2.13-3.9 4.6 4.6 0 00-1.74-.76 4.28 4.28 0 00-1.73.2c-1.02.42-1.75 1.28-1.76 2.1-.04.84.33 1.6.76 2.01.9.9 1.73.67 1.72.82.04 0-.2.14-.6.14-.36 0-.88-.11-1.47-.56a3.23 3.23 0 01-1.2-2.42c-.05-1.2.85-2.41 2.15-3.03a5.13 5.13 0 012.24-.4c.83.06 1.61.45 2.36.88a7.09 7.09 0 012.85 4.67c.78 4-1.23 8.28-3.59 12.13-2.37 3.9-4.54 8.38-2.83 13.38.68 2.48 1.87 4.96 3 7.66 1.1 2.7 2.1 5.72 1.99 9.08a11.02 11.02 0 01-4.9 8.77 16.65 16.65 0 01-9.37 2.85"/><path fill="#3E2818" d="M137.03 63.81c-.48 0-.94-.13-1.42-.5l-1.32-.98a3.19 3.19 0 00-2-.56c-1.56.28-2.34 1.4-3.34 1.4h-.26c-.97 0-2-.56-3.57-.82V59.3c.55.13 1.09.28 1.62.4.57.12 1.13.2 1.72.2h.2c1.35-.1 2.41-.58 3.35-.78.26-.06.52-.09.77-.09.74 0 1.48.22 2.22.43a7.96 7.96 0 002.43.42l.34.01c.73 0 1.4-.13 1.94-.26.64-.26 1.2-.4 1.6-.66l.38-.28.02-.02-.02.02c.13.74.23 1.47.35 2.2.1.74.23 1.47.33 2.21l-.17-.1a2.2 2.2 0 00-1.09-.25c-.29 0-.59.04-.9.12-.73.18-1.49.58-2.27.81-.31.09-.61.14-.91.14"/><path fill="#8D683A" d="M130.13 73.16a4.7 4.7 0 01-2.47-.65 3.33 3.33 0 01-1.61-2.73 3.01 3.01 0 011.21-2.63c.4-.27.84-.38 1.27-.38.47 0 .92.13 1.28.31.33.22.65.41.83.74.24.28.33.6.37.91.1.3.03.58-.01.83a1.3 1.3 0 01-.24.64c-.17.38-.43.56-.61.67l-.3.11c-.1-.11.28-.35.44-.99.21-.58.08-1.65-.9-2.07a2.2 2.2 0 00-.7-.13c-.29 0-.57.07-.8.25-.43.33-.68 1-.63 1.68a2.1 2.1 0 001.07 1.68c.5.3 1.13.44 1.78.44.2 0 .4-.01.59-.04 1.71-.3 3.17-1.46 4.46-2.58a7.5 7.5 0 012.24-1.37c.33-.13.69-.19 1.03-.19.54 0 1.06.15 1.45.46 1.35.99 1.15 2.65.6 3.22-.42.53-.83.65-.97.65l-.05-.01c-.07-.12.3-.32.59-.9a1.7 1.7 0 00-.67-2.18 1.28 1.28 0 00-.74-.22c-.8 0-1.78.62-2.69 1.46-1.24 1.14-2.81 2.56-5.07 2.97-.25.03-.5.05-.75.05m6.81-8.35c-.66 0-1.37-.17-1.92-.58-.85-.56-1.65-1.26-2.38-1.26-.07 0-.13 0-.2.02-.84.02-1.75 1.3-3.4 1.47l-.34.01c-1.4 0-2.67-.68-3.58-.77v-1.35c1.57.26 2.6.83 3.57.83l.23-.01h.03c1 0 1.78-1.12 3.34-1.4l.25-.01c.68 0 1.32.27 1.75.57l1.32.99c.48.36.94.5 1.42.5.3 0 .6-.06.9-.15.8-.23 1.55-.63 2.29-.8a2.8 2.8 0 011.98.12l.17.1v.02l.05.56-.4-.2c-.18-.06-.38-.1-.59-.1-.3 0-.63.07-.98.2-.64.2-1.3.63-2.2.99-.36.16-.82.25-1.31.25"/><path fill="#E3E3E3" d="M141.66 58.27v-.02l.21-.08-.21.1"/><path fill="#3E2818" d="M138.34 59a8.8 8.8 0 01-.83-.04c-.38-.08-.79-.13-1.17-.2-.43-.13-.83-.28-1.3-.4a7.35 7.35 0 00-2.42-.52c-.27 0-.54.02-.81.08-1.14.2-2.18.63-3.2.68-.5 0-1.04-.07-1.6-.17a32.8 32.8 0 00-1.9-.51V27.41h15.36l1.2 15.08a3.08 3.08 0 01-1.2 2.63 2.56 2.56 0 00-.94 2.54 130.41 130.41 0 011.65 7.93l.43 2.68.05-.02v.02a8.2 8.2 0 01-3.32.73"/><path fill="#8D683A" d="M128.46 59.9a8.9 8.9 0 01-1.72-.2l-1.62-.41v-1.37c.63.15 1.29.33 1.9.5.55.1 1.09.18 1.6.18 1-.05 2.05-.48 3.19-.68.27-.06.54-.08.81-.08.9 0 1.77.28 2.43.51.46.13.86.28 1.3.4.37.08.78.13 1.16.2a8.24 8.24 0 004.16-.68l.04.39-.02.02-.38.28c-.4.25-.96.4-1.6.66-.55.13-1.2.26-1.94.26h-.57c-.73 0-1.46-.21-2.2-.43-.73-.21-1.47-.43-2.2-.43-.26 0-.52.03-.78.1-.94.2-2 .68-3.35.78h-.2m19.82 112.36a99.32 99.32 0 00-23.17-2.74V156.7c8.78 0 17.56 1.03 26.16 3.1l-3 12.46m-8.33 6c-2.36 0-8.14-.89-14.83-1.27v-2.65c9.22.54 16.13 3.08 15.97 3.66-.05.18-.45.26-1.14.26m-1.71 7.49c-2.62 0-7.52-.41-13.12-.5v-2.64c8.6.14 15.3 2.18 15.15 2.79-.06.26-.79.35-2.03.35m5.06 7.98c-.82 0-2.62-.36-5.1-.85a89.18 89.18 0 00-13.08-1.36v-2.64a49.33 49.33 0 0113.55 2.2c3.32 1.14 5.23 2.2 5.1 2.5-.03.1-.2.15-.47.15m.67 7.17c-.86 0-2.72-.34-5.26-.82-3.46-.6-8.4-1.35-13.6-1.72v-2.64a61.9 61.9 0 0114.04 2.55c3.45 1.14 5.47 2.16 5.35 2.48-.03.1-.2.15-.53.15"/><path fill="#FBD185" d="M108.92 107.06h-2.94l.51-.47c2.23-2.17 3.49-3.6 3.98-3.6.04 0 .08 0 .1.03.27.15-.17 1.65-1.65 4.04"/><path fill="#DFA36D" d="M92.75 133.65h-5.34c.26-2.93.75-5.78 1.6-8.46.35-.94.65-1.87 1.05-2.77l1.48-2.58a22.45 22.45 0 013.57-4c2.47-2.25 4.76-3.78 6.7-5.27l2.61-2.09 1.56-1.42h2.94a32 32 0 01-.67 1.04c-.54.72-1.13 1.55-1.83 2.4l-2.43 2.58c-1.77 1.76-3.98 3.63-5.93 5.74-2 2.19-3.6 4.45-4.32 7.77a36.18 36.18 0 00-.99 7.06m2.35 96.21a5.5 5.5 0 01-4.06-2.12c-2-2.42-2.45-6.26-2.63-10.4h3.77a38.7 38.7 0 00-.17 3.6c-.03 2.33.31 4.23.95 5.5.62 1.29 1.63 1.83 2.38 2.24.79.26 1.27.51 1.27.71 0 .21-.48.37-1.5.47"/><path fill="#8E7F74" d="M92.18 217.35h-3.77c-.06-1.5-.09-3.05-.14-4.58-.97-12.55-.62-29.8-.6-48.62l-.19-13.72c-.12-4.41-.4-8.77-.28-13.03.04-1.26.1-2.51.21-3.75h5.34a64.32 64.32 0 00-.02 6.12 5.66 5.66 0 00-1.69 2.05 5.03 5.03 0 00-.3 4.38 4.84 4.84 0 002.48 2.48l.08 1.5.02.74c-.62.15-1.21.46-1.8.79a7.1 7.1 0 00-2.84 4.67c-.78 4 1.24 8.28 3.59 12.13.45.74.9 1.5 1.3 2.29-.06 5.63-.2 11.05-.36 16.18-.36.84-.74 1.7-1.1 2.57-1.1 2.7-2.1 5.72-2 9.08.04 2.31.97 4.72 2.5 6.61-.06 2.6-.12 5.06-.14 7.34-.04 1.8-.18 3.35-.29 4.77"/><path fill="#8E7F74" d="M92.77 200.15a8.46 8.46 0 01-.23-1.64c-.06-1.4.1-2.75.42-4.09l-.19 5.73m.84-33.01a30.13 30.13 0 01-2.73-5.2c-.7-1.83-1-3.67-.74-5.31a5.8 5.8 0 012.12-3.9c.36-.22.72-.43 1.09-.58l.28 11.97-.02 3.02m-.46-19.73a3.58 3.58 0 01-.5-4.65l.2-.3.3 4.95"/><path fill="#C4AA8B" d="M93.22 148.68a4.84 4.84 0 01-2.48-2.49 5.03 5.03 0 01.3-4.37c.38-.8.96-1.48 1.7-2.05.02.88.07 1.78.12 2.68-.08.1-.14.2-.2.3a3.58 3.58 0 00.5 4.66l.06 1.27m-.6 56.56a10.94 10.94 0 01-2.5-6.6c-.11-3.37.89-6.38 2-9.09.35-.88.73-1.73 1.09-2.57l-.25 7.44a15.2 15.2 0 00-.42 4.1c.03.55.1 1.1.23 1.63l-.15 5.09m.96-34.44c-.42-.79-.86-1.55-1.31-2.29-2.35-3.85-4.37-8.12-3.59-12.13a7.1 7.1 0 012.85-4.67 7.12 7.12 0 011.79-.79l.03 1.23c-.37.15-.73.36-1.1.58a5.8 5.8 0 00-2.11 3.9c-.26 1.64.04 3.48.74 5.32a30.3 30.3 0 002.73 5.19c0 1.23-.02 2.45-.03 3.66"/><path fill="#FBC971" d="M112.76 97.8c-.6 0-1.57-3-2.65-8-.53-2.55-.66-5.64-.96-9.07-.1-.82-.1-1.66-.09-2.51h4.26c-.06.84-.1 1.67-.06 2.47.07 3.29-.13 6.29-.01 8.79.28 5 .15 8.2-.45 8.32h-.04"/><path fill="#7C6A5E" d="M113.32 78.22h-4.26c.02-.94.07-1.9.1-2.88l.22-4.74c.08.31.2.57.36.74.43.53.85.65.99.65l.05-.01c.06-.12-.31-.32-.6-.9a1.7 1.7 0 01.68-2.18c.22-.15.47-.22.73-.22.7 0 1.52.46 2.31 1.13l-.03.19-.35 5.53c-.05.91-.14 1.8-.2 2.69"/><path fill="#7C6A5E" d="M109.48 69.23c.29-1.86.56-3.68.86-5.44.47.22 1 .51 1.65.77a3.54 3.54 0 002.65 0c-.17 1.28-.34 2.6-.54 3.93a5.6 5.6 0 00-1.27-.64 2.96 2.96 0 00-1.03-.19 2.44 2.44 0 00-2.32 1.57m3.72-5.42c-.3 0-.6-.05-.9-.14-.63-.18-1.24-.47-1.83-.67.2-1.12.4-2.21.62-3.26a7.16 7.16 0 001.96.14c.72 0 1.45-.21 2.19-.43l.14-.04c-.2 1.21-.38 2.47-.55 3.76l-.2.15c-.49.36-.95.5-1.43.5M111.89 59c-.22 0-.43 0-.63-.02l.1-.44c.82-3.3 1.58-6.14 2.03-8.54 1.02-4.8.5-7.83 1.17-8.02l.05-.01c.55 0 2.18 3.13 1.92 8.36a57.08 57.08 0 01-.94 7.88l-.4.14c-.46.13-.87.28-1.3.4-.38.08-.79.13-1.17.2-.29.04-.57.05-.83.05"/><path fill="#BA9D78" d="M110.73 71.99c-.14 0-.56-.12-.99-.65a1.6 1.6 0 01-.36-.74l.06-1.05.04-.32a2.44 2.44 0 012.32-1.57c.35 0 .7.06 1.03.19.45.15.87.38 1.27.64l-.2 1.32c-.79-.67-1.61-1.13-2.3-1.13-.27 0-.52.07-.74.22a1.7 1.7 0 00-.67 2.18c.28.58.65.78.59.9h-.05m2.57-7.17c-.5 0-.96-.1-1.31-.25-.65-.26-1.18-.55-1.65-.77l.13-.8c.6.2 1.2.5 1.82.68.32.09.62.14.91.14.48 0 .94-.13 1.42-.5l.2-.14-.18 1.38c-.43.18-.9.26-1.35.26m-.83-4.93c-.5 0-.95-.06-1.37-.14.05-.26.1-.51.17-.76a8.41 8.41 0 001.46-.02c.38-.08.79-.13 1.17-.2.43-.13.84-.28 1.3-.4l.4-.15-.21 1.17v.03l-.14.04a7.98 7.98 0 01-2.78.43"/></g></svg>
